<?xml version="1.0" encoding="UTF-8" standalone="no"?>
<!-- Created with Inkscape (http://www.inkscape.org/) -->

<svg
   width="210mm"
   height="297mm"
   viewBox="0 0 210 297"
   version="1.1"
   id="svg5"
   xml:space="preserve"
   inkscape:version="1.2.2 (1:1.2.2+202212051552+b0a8486541)"
   sodipodi:docname="dibujo.svg"
   xmlns:inkscape="http://www.inkscape.org/namespaces/inkscape"
   xmlns:sodipodi="http://sodipodi.sourceforge.net/DTD/sodipodi-0.dtd"
   xmlns:xlink="http://www.w3.org/1999/xlink"
   xmlns="http://www.w3.org/2000/svg"
   xmlns:svg="http://www.w3.org/2000/svg"><sodipodi:namedview
     id="namedview7"
     pagecolor="#505050"
     bordercolor="#eeeeee"
     borderopacity="1"
     inkscape:showpageshadow="0"
     inkscape:pageopacity="0"
     inkscape:pagecheckerboard="0"
     inkscape:deskcolor="#505050"
     inkscape:document-units="mm"
     showgrid="false"
     inkscape:zoom="1.0066639"
     inkscape:cx="264.73584"
     inkscape:cy="167.38457"
     inkscape:window-width="1348"
     inkscape:window-height="728"
     inkscape:window-x="6"
     inkscape:window-y="34"
     inkscape:window-maximized="0"
     inkscape:current-layer="layer1" /><defs
     id="defs2"><linearGradient
       inkscape:collect="always"
       id="linearGradient2023"><stop
         style="stop-color:#ff4533;stop-opacity:1;"
         offset="0"
         id="stop2019" /><stop
         style="stop-color:#ff5cff;stop-opacity:1;"
         offset="1"
         id="stop2021" /></linearGradient><linearGradient
       inkscape:collect="always"
       xlink:href="#linearGradient2023"
       id="linearGradient2025"
       x1="84.235886"
       y1="90.119484"
       x2="151.47203"
       y2="90.119484"
       gradientUnits="userSpaceOnUse" /><filter
       inkscape:collect="always"
       style="color-interpolation-filters:sRGB"
       id="filter2063"
       x="-0.050622398"
       y="-0.05505554"
       width="1.1012448"
       height="1.1101111"><feGaussianBlur
         inkscape:collect="always"
         stdDeviation="1.4181895"
         id="feGaussianBlur2065" /></filter></defs><g
     inkscape:label="Capa 1"
     inkscape:groupmode="layer"
     id="layer1"><g
       id="g2070"
       transform="translate(-39.983677,-21.565145)"
       inkscape:export-filename="../static/img-perfil.png"
       inkscape:export-xdpi="137.21674"
       inkscape:export-ydpi="137.21674"><rect
         style="fill:#000000;fill-opacity:1;stroke:none;stroke-width:1.02281;stroke-dasharray:none;stroke-opacity:1;filter:url(#filter2063)"
         id="rect2017-4"
         width="67.236145"
         height="61.822205"
         x="84.243004"
         y="59.331001"
         ry="9.6938772" /><rect
         style="fill:url(#linearGradient2025);fill-opacity:1;stroke:none;stroke-width:1.02281;stroke-dasharray:none;stroke-opacity:1"
         id="rect2017"
         width="67.236145"
         height="61.822205"
         x="84.235886"
         y="59.208382"
         ry="9.6938772" /><path
         d="m 104.20802,71.62288 c 0.80518,0.657091 2.08391,2.426189 2.79434,3.993091 1.18405,2.527282 1.27875,3.386551 1.42084,9.906939 -0.26063,6.420061 0.16454,6.646746 -0.21101,9.659419 -0.71816,5.966621 3.60159,-3.359539 4.56828,-5.413591 1.08932,-2.274547 2.28614,-8.460728 2.84169,-9.856385 0.63122,-1.585699 0.9123,-1.870187 3.04356,-1.870187 1.13667,0 1.69258,0.404362 2.63982,1.364732 2.03656,2.07238 2.98376,7.480735 1.89447,10.665121 -0.61572,1.617474 -0.14198,2.375641 0.56831,0.960364 1.04196,-2.1229 6.39379,-7.177471 9.04607,-8.542201 5.87282,-3.083284 12.17189,-0.859277 12.17189,4.245818 0,0.8593 -0.33154,1.010933 -2.51016,1.010933 -7.38839,0 -13.11913,3.538184 -19.56029,11.979303 -2.94582,4.331604 -3.72864,4.364254 -5.58865,3.538184 -0.80517,-0.60656 -0.80517,-1.0109 -0.28417,-5.35782 0.28417,-2.577836 0.42626,-4.801829 0.33151,-4.953485 -0.14197,-0.151753 -0.6157,0.556001 -0.99458,1.516365 -1.79973,4.700751 -8.52506,13.54622 -12.74025,16.83171 -2.79431,2.22398 -5.209739,2.88108 -5.683359,1.5669 -0.09472,-0.35382 0.520963,-3.13383 1.420808,-6.16653 3.078501,-10.51352 3.646841,-18.348101 1.799771,-24.009205 -1.231411,-3.689833 -3.978379,-5.913819 -6.157017,-5.004017 -2.557503,1.06145 -2.841675,-0.353806 -0.710396,-3.487633 2.746952,-4.04366 6.725303,-5.10511 9.898523,-2.577825 z"
         id="path858"
         style="fill:#ffffff;fill-opacity:1;stroke:none;stroke-width:0.847442;stroke-dasharray:none;stroke-opacity:1"
         sodipodi:nodetypes="cccccssccccsscccccccccccc" /></g></g></svg>
